HIERARCHY
ROOT Hips
{
	OFFSET 0.00000 0.00000 0.00000
	CHANNELS 6 Xposition Yposition Zposition Zrotation Yrotation Xrotation 
	JOINT LHipJoint
	{
		OFFSET 0 0 0
		CHANNELS 3 Zrotation Yrotation Xrotation
		JOINT LeftUpLeg
		{
			OFFSET 1.55020 -1.87941 0.79896
			CHANNELS 3 Zrotation Yrotation Xrotation
			JOINT LeftLeg
			{
				OFFSET 2.65269 -7.28822 0.00000
				CHANNELS 3 Zrotation Yrotation Xrotation
				JOINT LeftFoot
				{
					OFFSET 2.61200 -7.17641 0.00000
					CHANNELS 3 Zrotation Yrotation Xrotation
					JOINT LeftToeBase
					{
						OFFSET 0.09338 -0.25656 1.92461
						CHANNELS 3 Zrotation Yrotation Xrotation
						End Site
						{
							OFFSET 0.00000 -0.00000 0.98480
						}
					}
				}
			}
		}
	}
	JOINT RHipJoint
	{
		OFFSET 0 0 0
		CHANNELS 3 Zrotation Yrotation Xrotation
		JOINT RightUpLeg
		{
			OFFSET -1.56866 -1.87941 0.79895
			CHANNELS 3 Zrotation Yrotation Xrotation
			JOINT RightLeg
			{
				OFFSET -2.60199 -7.14892 0.00000
				CHANNELS 3 Zrotation Yrotation Xrotation
				JOINT RightFoot
				{
					OFFSET -2.62841 -7.22151 0.00000
					CHANNELS 3 Zrotation Yrotation Xrotation
					JOINT RightToeBase
					{
						OFFSET -0.19532 -0.53663 1.93132
						CHANNELS 3 Zrotation Yrotation Xrotation
						End Site
						{
							OFFSET -0.00000 -0.00000 1.00896
						}
					}
				}
			}
		}
	}
	JOINT LowerBack
	{
		OFFSET 0 0 0
		CHANNELS 3 Zrotation Yrotation Xrotation
		JOINT Spine
		{
			OFFSET 0.06381 2.07806 -0.22112
			CHANNELS 3 Zrotation Yrotation Xrotation
			JOINT Spine1
			{
				OFFSET -0.02881 2.08890 0.01825
				CHANNELS 3 Zrotation Yrotation Xrotation
				JOINT Neck
				{
					OFFSET 0 0 0
					CHANNELS 3 Zrotation Yrotation Xrotation
					JOINT Neck1
					{
						OFFSET 0.02418 1.74325 -0.02023
						CHANNELS 3 Zrotation Yrotation Xrotation
						JOINT Head
						{
							OFFSET -0.01704 1.71677 0.04090
							CHANNELS 3 Zrotation Yrotation Xrotation
							End Site
							{
								OFFSET -0.00946 1.78238 0.01684
							}
						}
					}
				}
				JOINT LeftShoulder
				{
					OFFSET 0 0 0
					CHANNELS 3 Zrotation Yrotation Xrotation
					JOINT LeftArm
					{
						OFFSET 3.39783 1.34157 0.16610
						CHANNELS 3 Zrotation Yrotation Xrotation
						JOINT LeftForeArm
						{
							OFFSET 5.15218 -0.00000 0.00000
							CHANNELS 3 Zrotation Yrotation Xrotation
							JOINT LeftHand
							{
								OFFSET 3.49459 -0.00000 0.00000
								CHANNELS 3 Zrotation Yrotation Xrotation
								JOINT LeftFingerBase
								{
									OFFSET 0 0 0
									CHANNELS 3 Zrotation Yrotation Xrotation
									JOINT LeftHandIndex1
									{
										OFFSET 0.51247 -0.00000 0.00000
										CHANNELS 3 Zrotation Yrotation Xrotation
										End Site
										{
											OFFSET 0.41316 -0.00000 0.00000
										}
									}
								}
								JOINT LThumb
								{
									OFFSET 0 0 0
									CHANNELS 3 Zrotation Yrotation Xrotation
									End Site
									{
										OFFSET 0.41947 -0.00000 0.41947
									}
								}
							}
						}
					}
				}
				JOINT RightShoulder
				{
					OFFSET 0 0 0
					CHANNELS 3 Zrotation Yrotation Xrotation
					JOINT RightArm
					{
						OFFSET -3.26224 1.05509 0.01188
						CHANNELS 3 Zrotation Yrotation Xrotation
						JOINT RightForeArm
						{
							OFFSET -5.44344 -0.00000 0.00000
							CHANNELS 3 Zrotation Yrotation Xrotation
							JOINT RightHand
							{
								OFFSET -3.58403 -0.00000 0.00000
								CHANNELS 3 Zrotation Yrotation Xrotation
								JOINT RightFingerBase
								{
									OFFSET 0 0 0
									CHANNELS 3 Zrotation Yrotation Xrotation
									JOINT RightHandIndex1
									{
										OFFSET -0.34249 -0.00000 0.00000
										CHANNELS 3 Zrotation Yrotation Xrotation
										End Site
										{
											OFFSET -0.27612 -0.00000 0.00000
										}
									}
								}
								JOINT RThumb
								{
									OFFSET 0 0 0
									CHANNELS 3 Zrotation Yrotation Xrotation
									End Site
									{
										OFFSET -0.28034 -0.00000 0.28034
									}
								}
							}
						}
					}
				}
			}
		}
	}
}
MOTION
Frames: 12
Frame Time: .0083333
-15.8043 16.388 -1.6349 0 0 0 0 0 0 -21 0 0 0 0 0 0 0 0 0 0 0 0 0 0 21 0 0 0 0 0 0 0 0 0 0 0 0 0 0 0 0 0 0 0 0 0 0 -16 0 0 21 0 0 11 0 0 0 -8 0 0 0 0 0 0 0 0 0 0 0 0 0 0 0 0 0 0 0 0 8 0 0 0 0 0 0 0 0 0 0 0 0 0 0 0 0 0
-15.8043 16.3880 -1.6349 -6.0264 76.2724 -0.4435 0.0000 0.0000 0.0000 -17.6834 -2.3783 -37.5347 10.7558 17.8135 61.9860 1.3901 -15.6888 -22.2963 0.5942 -4.9348 -13.7227 0.0000 0.0000 0.0000 19.0214 20.6071 -34.0347 -10.1498 -17.4932 59.9877 -2.0155 5.5952 -25.6647 -1.1574 6.8301 -19.2131 -2.7327 -3.7744 21.1167 -2.8397 -5.5595 3.7344 -0.0304 -2.5350 -7.7209 7.3481 6.7129 1.3834 -3.8923 9.0479 -4.1544 -2.5676 4.4945 -1.0140 -0.0000 0.0000 0.0000 -58.8037 -48.0692 16.5627 53.1302 -54.1825 -28.6936 -0.0000 0.0000 -24.3504 22.4619 30.6106 11.8884 -7.1250 0.0000 -0.0000 -10.8545 62.2865 -4.5905 -0.0000 0.0000 0.0000 83.2737 -5.2925 49.4670 -22.8716 33.9481 -7.0664 0.0000 0.0000 18.4489 -18.9842 -30.3204 9.8525 7.1250 -0.0000 -0.0000 14.5854 -61.1260 -5.7993
-15.8228 16.3811 -1.6264 -5.6781 76.3737 -0.0759 0.0000 0.0000 0.0000 -17.7231 -2.4419 -37.6845 10.7917 17.8317 62.1034 1.3815 -15.7548 -22.2576 0.5846 -4.8955 -13.6106 0.0000 0.0000 0.0000 18.9049 20.6876 -34.2512 -10.2143 -17.5286 60.2023 -2.0061 5.5240 -25.6100 -1.1175 6.7153 -18.8747 -2.8393 -3.7594 21.2638 -2.8928 -5.5659 3.7823 -0.0192 -2.5327 -7.7416 7.3162 6.7006 1.3696 -3.8404 9.0330 -4.3560 -2.5510 4.4846 -1.0809 -0.0000 -0.0000 0.0000 -58.7738 -48.3390 16.5089 53.3212 -54.2502 -28.8485 -0.0000 0.0000 -24.2274 22.3183 30.7020 11.8374 -7.1250 0.0000 -0.0000 -11.0818 62.3406 -4.7020 -0.0000 -0.0000 0.0000 83.3016 -5.1949 49.7881 -23.2764 34.3897 -7.2938 0.0000 0.0000 18.2062 -19.2649 -30.4966 10.0580 7.1250 -0.0000 -0.0000 14.3987 -61.3668 -5.8056
-15.8481 16.3654 -1.6170 -5.8524 76.3258 -0.1680 0.0000 0.0000 0.0000 -17.5823 -2.3961 -38.0313 10.8721 17.8719 62.3656 1.3525 -15.9121 -22.1103 0.5421 -4.7173 -13.1039 0.0000 0.0000 0.0000 18.9127 20.9499 -34.5701 -10.3073 -17.5791 60.5106 -1.9900 5.4977 -25.5058 -1.0621 6.5524 -18.3958 -2.8463 -3.6980 21.3869 -2.9419 -5.4873 3.8517 -0.0846 -2.4930 -7.7361 7.3714 6.6770 1.1793 -3.8290 8.9917 -4.4665 -2.5516 4.4614 -1.0839 -0.0000 -0.0000 0.0000 -58.6060 -48.7304 16.4169 53.4735 -54.3039 -28.9723 -0.0000 0.0000 -24.1639 22.2293 30.9132 11.8575 -7.1250 0.0000 -0.0000 -11.3293 62.5281 -4.8585 -0.0000 -0.0000 0.0000 83.3901 -5.0145 50.0594 -23.6540 34.7963 -7.5082 0.0000 0.0000 18.0751 -19.7732 -30.2891 10.2770 7.1250 -0.0000 -0.0000 13.6865 -61.2897 -5.4871
-15.8761 16.3457 -1.6046 -6.0327 76.2773 -0.2851 0.0000 0.0000 0.0000 -17.4216 -2.3350 -38.3901 10.9518 17.9114 62.6249 1.3041 -16.1446 -21.8571 0.4620 -4.3602 -12.0922 0.0000 0.0000 0.0000 18.9354 21.2316 -34.8911 -10.4111 -17.6347 60.8539 -1.9736 5.4833 -25.3973 -1.0133 6.4046 -17.9630 -2.8845 -3.6297 21.5618 -2.9922 -5.4077 3.9273 -0.1317 -2.4509 -7.7480 7.3692 6.6555 0.9951 -3.7401 8.9555 -4.6046 -2.5182 4.4401 -1.1025 0.0000 0.0000 0.0000 -58.4180 -49.1384 16.3523 53.6396 -54.3619 -29.1072 -0.0000 0.0000 -24.2349 22.3435 31.0404 11.9661 -7.1250 0.0000 -0.0000 -11.2852 62.6845 -4.8809 0.0000 0.0000 0.0000 83.5030 -4.8781 50.3013 -24.0790 35.2477 -7.7521 0.0000 0.0000 17.9576 -20.3826 -30.3472 10.6319 7.1250 -0.0000 -0.0000 13.0442 -61.4982 -5.2890
-15.9031 16.3274 -1.5892 -5.7587 76.4348 -0.1357 0.0000 0.0000 0.0000 -17.3931 -2.3939 -38.4942 11.0398 17.9545 62.9109 1.2745 -16.3249 -21.7147 0.4181 -4.1502 -11.4995 0.0000 0.0000 0.0000 18.9061 21.2376 -35.0763 -10.5329 -17.6988 61.2551 -1.9662 5.4934 -25.3461 -0.9680 6.2639 -17.5521 -3.0479 -3.6318 21.9233 -3.0534 -5.4471 4.0686 -0.0797 -2.4593 -7.7739 7.3172 6.6439 0.8386 -3.6412 8.9348 -4.8281 -2.4768 4.4264 -1.1550 0.0000 0.0000 0.0000 -58.2229 -49.4911 16.1580 53.8504 -54.4351 -29.2786 -0.0000 0.0000 -24.2017 22.3069 31.0544 11.9497 -7.1250 0.0000 -0.0000 -11.3375 62.6889 -4.9050 0.0000 0.0000 0.0000 83.5975 -4.6664 50.6041 -24.4570 35.6438 -7.9713 0.0000 0.0000 17.7844 -20.8104 -30.4697 10.9088 7.1250 -0.0000 -0.0000 12.6460 -61.7261 -5.1929
-15.9322 16.3049 -1.5719 -5.1742 76.6793 0.2486 0.0000 0.0000 0.0000 -17.4377 -2.5260 -38.5225 11.1459 18.0058 63.2546 1.2600 -16.4529 -21.6579 0.4110 -4.1153 -11.4012 0.0000 0.0000 0.0000 18.8381 21.1185 -35.2485 -10.6759 -17.7728 61.7246 -1.9466 5.3285 -25.2337 -1.0047 6.3781 -17.8854 -3.2884 -3.6605 22.3406 -3.1281 -5.5362 4.2616 0.0161 -2.4886 -7.7643 7.2675 6.6367 0.6297 -3.5789 8.9158 -5.0730 -2.4461 4.4139 -1.2033 -0.0000 -0.0000 0.0000 -57.9741 -49.8191 15.8830 54.1068 -54.5233 -29.4873 -0.0000 0.0000 -24.1654 22.2283 30.9175 11.8584 -7.1250 0.0000 -0.0000 -11.3335 62.5323 -4.8615 -0.0000 -0.0000 0.0000 83.6717 -4.3670 50.9596 -24.7748 35.9729 -8.1572 0.0000 0.0000 17.6476 -21.2037 -30.3125 11.0786 7.1250 -0.0000 -0.0000 12.0936 -61.6694 -4.9461
-15.9675 16.2730 -1.5540 -5.0281 76.8226 0.2164 0.0000 0.0000 0.0000 -17.3399 -2.5767 -38.6859 11.2837 18.0711 63.6994 1.2402 -16.5812 -21.5664 0.4197 -4.1581 -11.5218 0.0000 0.0000 0.0000 18.9063 21.0877 -35.4691 -10.8363 -17.8540 62.2487 -1.9195 4.9604 -25.0969 -1.1729 6.8743 -19.3436 -3.4335 -3.6594 22.8215 -3.1793 -5.5715 4.4119 0.0744 -2.4928 -7.8410 7.1469 6.6321 0.5715 -3.4620 8.9135 -5.4357 -2.3964 4.4094 -1.3204 -0.0000 0.0000 0.0000 -57.7417 -50.1073 15.6834 54.3904 -54.6197 -29.7184 -0.0000 0.0000 -24.1801 22.1492 30.8231 11.7814 -7.1250 0.0000 -0.0000 -11.3597 62.4177 -4.8422 -0.0000 0.0000 0.0000 83.6821 -4.1564 51.4152 -25.1514 36.3584 -8.3795 0.0000 0.0000 17.4968 -21.5511 -30.3232 11.2767 7.1250 -0.0000 -0.0000 11.7061 -61.7675 -4.8123
-16.0077 16.2314 -1.5373 -5.6715 76.9184 -0.5640 0.0000 0.0000 0.0000 -17.0267 -2.5743 -39.0035 11.4626 18.1541 64.2750 1.2190 -16.6720 -21.4542 0.4533 -4.3191 -11.9762 0.0000 0.0000 0.0000 19.1716 21.0652 -35.7619 -11.0030 -17.9365 62.7913 -1.8873 4.6444 -24.9200 -1.3692 7.4056 -20.9226 -3.3982 -3.6798 23.3319 -3.1918 -5.5939 4.5448 0.0725 -2.4942 -7.9649 6.9541 6.6499 0.5710 -3.2648 8.9496 -5.8557 -2.3131 4.4236 -1.4708 -0.0000 -0.0000 0.0000 -57.4289 -50.3876 15.4186 54.6235 -54.6982 -29.9085 -0.0000 0.0000 -24.2319 21.9877 30.7284 11.6576 -7.1250 0.0000 -0.0000 -11.4808 62.2819 -4.8578 -0.0000 -0.0000 0.0000 83.6512 -3.9130 51.9912 -25.5134 36.7242 -8.5950 0.0000 0.0000 17.3924 -21.6128 -30.5733 11.3934 7.1250 -0.0000 -0.0000 11.8047 -62.0318 -4.9272
-16.0499 16.1875 -1.5208 -6.3624 77.0666 -1.3518 0.0000 0.0000 0.0000 -16.6992 -2.6431 -39.3929 11.6650 18.2454 64.9231 1.2027 -16.7381 -21.3670 0.4947 -4.5094 -12.5142 0.0000 0.0000 0.0000 19.4199 20.9968 -36.1403 -11.1649 -18.0149 63.3161 -1.8580 4.4790 -24.7420 -1.4447 7.5984 -21.5009 -3.3316 -3.6942 23.7562 -3.2278 -5.5889 4.7591 0.0114 -2.4855 -7.9583 6.9597 6.6237 0.2555 -3.1715 8.9055 -6.1411 -2.2787 4.3972 -1.5144 -0.0000 0.0000 0.0000 -56.9867 -50.9204 15.1173 54.7044 -54.7252 -29.9746 -0.0000 0.0000 -24.4026 21.7919 30.6710 11.5271 -7.1250 0.0000 -0.0000 -11.6664 62.1745 -4.9079 -0.0000 0.0000 0.0000 83.7020 -3.5466 52.4262 -25.8401 37.0504 -8.7912 0.0000 0.0000 17.3973 -21.7964 -30.7624 11.5598 7.1250 -0.0000 -0.0000 11.7241 -62.2666 -4.9580
-16.0960 16.1460 -1.5026 -7.4768 77.3013 -2.5341 0.0000 0.0000 0.0000 -16.2576 -2.8302 -39.7942 11.8712 18.3357 65.5799 1.1710 -16.8845 -21.2034 0.4887 -4.4823 -12.4378 0.0000 0.0000 0.0000 19.7489 20.9263 -36.5087 -11.3045 -18.0809 63.7664 -1.8495 4.2966 -24.7106 -1.4202 7.5365 -21.3149 -3.1502 -3.7252 24.1562 -3.2552 -5.5687 5.0234 -0.1129 -2.4724 -7.8928 7.2726 6.5445 -0.1854 -3.3419 8.7740 -6.4183 -2.3770 4.3260 -1.5141 0.0000 -0.0000 0.0000 -56.5211 -51.6008 14.8751 54.7136 -54.7283 -29.9820 -0.0000 0.0000 -24.5873 21.5782 30.6882 11.4114 -7.1250 0.0000 -0.0000 -11.9230 62.1370 -5.0070 0.0000 -0.0000 0.0000 83.7904 -3.1578 52.7594 -26.1490 37.3555 -8.9779 0.0000 0.0000 17.4327 -22.3392 -30.8102 11.8859 7.1250 -0.0000 -0.0000 11.1314 -62.4540 -4.7531
-16.1483 16.1100 -1.4860 -8.9924 77.6305 -4.0696 0.0000 0.0000 0.0000 -15.7407 -3.1330 -40.2170 12.0627 18.4170 66.1874 1.1159 -17.0813 -20.8995 0.4380 -4.2465 -11.7712 0.0000 0.0000 0.0000 20.1056 20.8098 -36.8549 -11.4031 -18.1268 64.0838 -1.8590 4.1131 -24.8062 -1.3355 7.3174 -20.6592 -2.8776 -3.8494 24.6321 -3.2163 -5.6537 5.1864 -0.1767 -2.5087 -7.9784 7.2447 6.5178 -0.2758 -3.2876 8.7455 -6.9000 -2.3668 4.3071 -1.6599 -0.0000 -0.0000 0.0000 -56.1614 -52.0553 14.6081 54.7050 -54.7254 -29.9750 -0.0000 0.0000 -24.6852 21.3691 30.5809 11.2582 -7.1250 0.0000 -0.0000 -12.0881 61.9774 -5.0318 -0.0000 -0.0000 0.0000 83.6983 -2.8057 53.3529 -26.3313 37.5340 -9.0887 0.0000 0.0000 17.4319 -22.7841 -30.7616 12.1248 7.1250 -0.0000 -0.0000 10.5827 -62.5206 -4.5325
